<?xml version="1.0" encoding="UTF-8"?><svg id="Capa_1" xmlns="http://www.w3.org/2000/svg" viewBox="0 0 1350 864.18"><defs><style>.cls-1{fill:#fff;}</style></defs><path class="cls-1" d="m1235.67,176.41l-.68,210.78c0,68.2-55.48,123.68-123.68,123.68-53.53,0-99.22-34.17-116.39-81.87h-90.2c6.2,30.8,19.16,59.2,37.25,83.56h-226.64v.07h-52.76c-54.17,0-100.31-35.04-116.99-83.63h324.25c2.38-12.64,3.69-25.7,3.69-39.03,0-116.67-94.39-211.25-210.96-211.65v-.15c-100.02,0-183.95,69.96-205.46,163.53h-31.47v-163.53h-87.1v209.02c0,68.2-55.48,123.68-123.68,123.68-53.53,0-99.22-34.17-116.39-81.87H8.23c19.45,96.3,104.7,168.98,206.62,168.98s187.44-72.93,206.69-169.45h33.97c18.56,97.36,104.33,171.21,207.04,171.21h54v-.32h410.56c108.89-8.1,194.97-101.3,194.97-212.22l.68-210.78h-87.1Zm-573.58,88.86v.15c51.47.1,95.68,31.57,114.51,76.27h-228.28c18.54-44.68,62.5-76.22,113.77-76.42Z"/><rect class="cls-1" x="8.23" y="695.62" width="6.31" height="46.55"/><polygon class="cls-1" points="85.55 733.88 85.42 733.88 59.78 695.62 51.5 695.62 51.5 742.17 57.81 742.17 57.81 703.9 57.94 703.9 83.84 742.17 91.86 742.17 91.86 695.62 85.55 695.62 85.55 733.88"/><path class="cls-1" d="m151.83,722.05h10.32v12.95c-1.4.79-3.1,1.39-5.09,1.81-2,.42-4.11.63-6.34.63-2.59,0-4.98-.47-7.16-1.41-2.2-.94-4.1-2.24-5.72-3.91-1.62-1.66-2.89-3.63-3.81-5.88-.92-2.26-1.38-4.7-1.38-7.33s.42-4.94,1.25-7.2c.83-2.26,2.02-4.22,3.55-5.88,1.53-1.66,3.38-2.99,5.52-3.98,2.15-.99,4.56-1.48,7.23-1.48,2.37,0,4.62.36,6.77,1.09,2.15.72,4.19,2.01,6.11,3.85l4.47-4.8c-1.84-1.88-4.12-3.36-6.84-4.44-2.72-1.07-6.22-1.61-10.52-1.61-3.55,0-6.82.62-9.8,1.87-2.98,1.25-5.53,2.97-7.66,5.16-2.13,2.19-3.79,4.78-5,7.76-1.21,2.98-1.81,6.2-1.81,9.67s.56,6.41,1.67,9.37c1.12,2.96,2.74,5.56,4.87,7.79,2.13,2.24,4.73,4.01,7.82,5.33,3.09,1.31,6.61,1.97,10.55,1.97,1.4,0,2.9-.09,4.5-.26,1.6-.17,3.18-.45,4.73-.82,1.56-.37,3.06-.82,4.5-1.35,1.44-.53,2.74-1.14,3.88-1.84v-22.95h-16.63v5.92Z"/><polygon class="cls-1" points="211.26 721.33 233.36 721.33 233.36 715.41 211.26 715.41 211.26 701.54 235 701.54 235 695.62 204.95 695.62 204.95 742.17 236.18 742.17 236.18 736.25 211.26 736.25 211.26 721.33"/><polygon class="cls-1" points="304.17 733.88 304.03 733.88 278.39 695.62 270.11 695.62 270.11 742.17 276.42 742.17 276.42 703.9 276.55 703.9 302.45 742.17 310.48 742.17 310.48 695.62 304.17 695.62 304.17 733.88"/><rect class="cls-1" x="347.43" y="695.62" width="6.31" height="46.55"/><polygon class="cls-1" points="397 721.33 419.09 721.33 419.09 715.41 397 715.41 397 701.54 420.74 701.54 420.74 695.62 390.69 695.62 390.69 742.17 421.92 742.17 421.92 736.25 397 736.25 397 721.33"/><path class="cls-1" d="m480.47,719.52c1.43-.77,2.63-1.71,3.61-2.83.99-1.12,1.75-2.37,2.27-3.75.53-1.38.79-2.81.79-4.31s-.22-2.95-.66-4.5c-.44-1.56-1.22-2.96-2.33-4.21-1.12-1.25-2.64-2.28-4.57-3.09-1.93-.81-4.38-1.22-7.37-1.22h-16.37v46.55h6.31v-20.51h7.03l11.84,20.51h7.89l-13.22-21.24c1.75-.18,3.34-.64,4.77-1.41Zm-10.03-3.39h-8.29v-14.99h8.29c1.23,0,2.44.1,3.65.3,1.2.2,2.28.56,3.22,1.08.94.53,1.7,1.28,2.27,2.27.57.99.85,2.27.85,3.85s-.29,2.86-.85,3.85c-.57.99-1.33,1.74-2.27,2.27-.94.53-2.02.89-3.22,1.08-1.21.2-2.42.3-3.65.3Z"/><rect class="cls-1" x="521" y="695.62" width="6.31" height="46.55"/><path class="cls-1" d="m578.86,695.62l-20.51,46.55h7.36l4.6-11.51h22.16l4.67,11.51h7.36l-19.92-46.55h-5.72Zm-6.31,29.52l8.81-21.37h.13l8.68,21.37h-17.62Z"/><path class="cls-1" d="m707.01,735.79c-2.02,1.09-4.36,1.64-7.03,1.64s-5.15-.48-7.3-1.44c-2.14-.96-3.97-2.28-5.46-3.95-1.49-1.67-2.63-3.6-3.42-5.79-.79-2.19-1.18-4.51-1.18-6.97,0-2.63.42-5.1,1.25-7.4.83-2.3,2.01-4.31,3.52-6.02,1.51-1.71,3.33-3.06,5.46-4.04,2.12-.99,4.5-1.48,7.13-1.48,2.14,0,4.23.46,6.25,1.38,2.01.92,3.68,2.24,5,3.95l5.26-4.01c-1.89-2.46-4.31-4.28-7.27-5.46-2.96-1.18-5.97-1.77-9.04-1.77-3.6,0-6.88.61-9.86,1.84-2.98,1.23-5.53,2.95-7.66,5.16-2.13,2.21-3.78,4.84-4.96,7.89-1.18,3.05-1.78,6.37-1.78,9.96,0,2.94.55,5.84,1.64,8.71,1.09,2.87,2.68,5.45,4.77,7.73,2.08,2.28,4.6,4.12,7.56,5.52,2.96,1.4,6.28,2.1,9.96,2.1,2.67,0,5.03-.34,7.07-1.02,2.04-.68,3.78-1.47,5.23-2.37,1.44-.9,2.61-1.79,3.48-2.69.87-.9,1.49-1.59,1.84-2.07l-5.32-4.01c-1.41,1.97-3.12,3.51-5.13,4.6Z"/><path class="cls-1" d="m788.9,701.47c-2.13-2.19-4.68-3.91-7.66-5.16-2.98-1.25-6.25-1.87-9.8-1.87s-6.82.62-9.8,1.87c-2.98,1.25-5.53,2.97-7.66,5.16-2.13,2.19-3.79,4.78-5,7.76-1.21,2.98-1.81,6.2-1.81,9.67s.6,6.68,1.81,9.66c1.2,2.98,2.87,5.57,5,7.76,2.12,2.19,4.68,3.91,7.66,5.16,2.98,1.25,6.25,1.87,9.8,1.87s6.81-.63,9.8-1.87c2.98-1.25,5.53-2.97,7.66-5.16,2.13-2.19,3.79-4.78,5-7.76,1.21-2.98,1.81-6.2,1.81-9.66s-.6-6.68-1.81-9.67c-1.21-2.98-2.87-5.57-5-7.76Zm-1.15,24.62c-.83,2.26-2.02,4.22-3.55,5.88-1.53,1.67-3.38,2.99-5.52,3.98-2.15.99-4.56,1.48-7.23,1.48s-5.09-.49-7.23-1.48c-2.15-.99-3.99-2.31-5.52-3.98-1.53-1.66-2.72-3.63-3.55-5.88-.83-2.26-1.25-4.66-1.25-7.2s.42-4.94,1.25-7.2c.83-2.26,2.02-4.22,3.55-5.88,1.53-1.66,3.37-2.99,5.52-3.98,2.15-.99,4.56-1.48,7.23-1.48s5.08.49,7.23,1.48c2.15.99,3.99,2.31,5.52,3.98,1.53,1.67,2.72,3.63,3.55,5.88.83,2.26,1.25,4.66,1.25,7.2s-.42,4.94-1.25,7.2Z"/><polygon class="cls-1" points="863.82 733.88 863.69 733.88 838.04 695.62 829.76 695.62 829.76 742.17 836.07 742.17 836.07 703.9 836.2 703.9 862.11 742.17 870.13 742.17 870.13 695.62 863.82 695.62 863.82 733.88"/><path class="cls-1" d="m928.35,718.53c-1.69-.94-3.53-1.68-5.52-2.2-2-.53-3.83-1.12-5.52-1.78-1.69-.66-3.1-1.51-4.24-2.56-1.14-1.05-1.71-2.56-1.71-4.54,0-.7.15-1.47.43-2.3.29-.83.78-1.61,1.48-2.33.7-.73,1.63-1.32,2.79-1.78,1.16-.46,2.62-.69,4.37-.69,1.84,0,3.48.38,4.93,1.12,1.45.74,2.56,1.73,3.35,2.96l5.13-4.67c-1.75-2.14-3.79-3.57-6.12-4.27-2.32-.7-4.76-1.05-7.3-1.05-2.81,0-5.2.43-7.2,1.28-1.99.86-3.63,1.92-4.9,3.19-1.27,1.27-2.2,2.67-2.8,4.21-.59,1.54-.89,2.98-.89,4.34,0,3.03.57,5.42,1.71,7.2,1.14,1.78,2.55,3.19,4.24,4.24,1.69,1.05,3.53,1.87,5.52,2.46,1.99.59,3.83,1.21,5.52,1.84,1.69.64,3.1,1.43,4.24,2.37,1.14.94,1.71,2.31,1.71,4.11,0,1.27-.29,2.39-.86,3.35-.57.96-1.31,1.78-2.2,2.43-.9.66-1.9,1.15-2.99,1.48-1.09.33-2.17.49-3.22.49-1.89,0-3.71-.41-5.49-1.22-1.77-.81-3.23-2.07-4.37-3.78l-5.2,4.47c1.58,2.19,3.7,3.81,6.38,4.86,2.67,1.05,5.5,1.58,8.48,1.58,2.23,0,4.34-.33,6.31-.99,1.97-.66,3.68-1.6,5.13-2.83,1.44-1.23,2.59-2.74,3.45-4.53.86-1.8,1.28-3.81,1.28-6.05,0-2.8-.57-5.01-1.71-6.61-1.14-1.6-2.55-2.87-4.24-3.81Z"/><path class="cls-1" d="m996.82,735.79c-2.02,1.09-4.36,1.64-7.03,1.64s-5.15-.48-7.3-1.44c-2.15-.96-3.97-2.28-5.46-3.95-1.49-1.67-2.63-3.6-3.42-5.79-.79-2.19-1.18-4.51-1.18-6.97,0-2.63.42-5.1,1.25-7.4.83-2.3,2.01-4.31,3.52-6.02,1.51-1.71,3.33-3.06,5.46-4.04,2.13-.99,4.5-1.48,7.13-1.48,2.15,0,4.23.46,6.25,1.38,2.02.92,3.68,2.24,5,3.95l5.26-4.01c-1.88-2.46-4.31-4.28-7.26-5.46-2.96-1.18-5.97-1.77-9.04-1.77-3.59,0-6.88.61-9.86,1.84-2.98,1.23-5.53,2.95-7.66,5.16-2.12,2.21-3.78,4.84-4.96,7.89-1.18,3.05-1.78,6.37-1.78,9.96,0,2.94.55,5.84,1.65,8.71,1.09,2.87,2.68,5.45,4.76,7.73,2.08,2.28,4.6,4.12,7.56,5.52,2.96,1.4,6.28,2.1,9.96,2.1,2.68,0,5.03-.34,7.07-1.02,2.04-.68,3.78-1.47,5.23-2.37,1.45-.9,2.61-1.79,3.48-2.69.88-.9,1.49-1.59,1.84-2.07l-5.33-4.01c-1.4,1.97-3.11,3.51-5.13,4.6Z"/><rect class="cls-1" x="1039.89" y="695.62" width="6.31" height="46.55"/><polygon class="cls-1" points="1089.47 721.33 1111.56 721.33 1111.56 715.41 1089.47 715.41 1089.47 701.54 1113.2 701.54 1113.2 695.62 1083.16 695.62 1083.16 742.17 1114.39 742.17 1114.39 736.25 1089.47 736.25 1089.47 721.33"/><polygon class="cls-1" points="1182.37 733.88 1182.24 733.88 1156.6 695.62 1148.31 695.62 1148.31 742.17 1154.62 742.17 1154.62 703.9 1154.76 703.9 1180.66 742.17 1188.68 742.17 1188.68 695.62 1182.37 695.62 1182.37 733.88"/><polygon class="cls-1" points="1220.37 701.54 1235.36 701.54 1235.36 742.17 1241.67 742.17 1241.67 701.54 1256.66 701.54 1256.66 695.62 1220.37 695.62 1220.37 701.54"/><polygon class="cls-1" points="1294.66 721.33 1316.76 721.33 1316.76 715.41 1294.66 715.41 1294.66 701.54 1318.4 701.54 1318.4 695.62 1288.35 695.62 1288.35 742.17 1319.58 742.17 1319.58 736.25 1294.66 736.25 1294.66 721.33"/></svg>